<svg xmlns="http://www.w3.org/2000/svg" xmlns:xlink="http://www.w3.org/1999/xlink" preserveAspectRatio="xMidYMid" width="34.156" height="34.188" viewBox="0 0 34.156 34.188">
  <defs>
    <style>
      .cls-1 {
        fill: #fff;
        fill-rule: evenodd;
      }
    </style>
  </defs>
  <path d="M32.037,9.618 L32.037,3.648 L19.906,15.794 L18.396,14.283 L30.528,2.137 L24.566,2.137 L24.566,-0.000 L34.172,-0.000 L34.172,9.618 L32.037,9.618 ZM13.891,4.274 L20.295,4.274 L20.295,6.412 L13.891,6.412 L13.891,4.274 ZM6.418,11.755 L4.283,11.755 L4.283,4.277 L11.753,4.277 L11.753,6.414 L6.418,6.414 L6.418,11.755 ZM6.418,13.895 L6.418,20.304 L4.283,20.304 L4.283,13.895 L6.418,13.895 ZM15.788,19.916 L3.657,32.060 L9.619,32.060 L9.619,34.197 L0.013,34.197 L0.013,24.581 L2.148,24.581 L2.148,30.549 L14.279,18.405 L15.788,19.916 ZM20.294,29.922 L13.890,29.922 L13.890,27.785 L20.294,27.785 L20.294,29.922 ZM27.767,13.892 L29.902,13.892 L29.902,20.302 L27.767,20.302 L27.767,13.892 ZM27.767,22.442 L29.902,22.442 L29.902,29.920 L22.432,29.920 L22.432,27.783 L27.767,27.783 L27.767,22.442 Z" class="cls-1"/>
</svg>
