<svg xmlns="http://www.w3.org/2000/svg" xmlns:xlink="http://www.w3.org/1999/xlink" preserveAspectRatio="xMidYMid" width="32.03" height="34.188" viewBox="0 0 32.03 34.188">
  <defs>
    <style>
      .cls-1 {
        fill: #fff;
        fill-rule: evenodd;
      }
    </style>
  </defs>
  <path d="M20.299,30.991 C18.533,30.991 17.096,32.429 17.096,34.197 L14.961,34.197 C14.961,32.429 13.525,30.991 11.759,30.991 L0.017,30.991 L0.017,28.853 L11.759,28.853 C13.511,28.853 15.055,29.714 16.029,31.024 C17.002,29.714 18.547,28.853 20.299,28.853 L32.041,28.853 L32.041,30.991 L20.299,30.991 ZM19.202,24.579 L29.906,24.579 L29.906,2.137 L20.299,2.137 C18.533,2.137 17.096,3.575 17.096,5.343 L17.096,26.716 L14.961,26.716 L14.961,5.343 C14.961,3.575 13.525,2.137 11.759,2.137 L2.152,2.137 L2.152,24.579 L12.858,24.579 L12.858,26.716 L0.017,26.716 L0.017,-0.000 L11.759,-0.000 C13.511,-0.000 15.055,0.861 16.029,2.170 C17.002,0.861 18.547,-0.000 20.299,-0.000 L32.041,-0.000 L32.041,26.716 L19.202,26.716 L19.202,24.579 Z" class="cls-1"/>
</svg>
