<svg xmlns="http://www.w3.org/2000/svg" xmlns:xlink="http://www.w3.org/1999/xlink" preserveAspectRatio="xMidYMid" width="34.157" height="34.188" viewBox="0 0 34.157 34.188">
  <defs>
    <style>
      .cls-1 {
        fill: #fff;
        fill-rule: evenodd;
      }
    </style>
  </defs>
  <path d="M22.707,20.304 L20.286,13.736 L16.193,25.200 L12.648,17.515 L11.368,20.304 L0.009,20.304 L0.009,18.167 L10.000,18.167 L12.642,12.403 L15.941,19.556 L20.253,7.474 L24.195,18.167 L34.168,18.167 L34.168,20.304 L22.707,20.304 ZM30.148,15.361 C31.345,13.926 32.033,12.027 32.033,10.152 C32.033,5.733 28.442,2.137 24.027,2.137 C21.650,2.137 19.418,3.167 17.905,4.963 L17.089,5.933 L16.273,4.963 C14.760,3.167 12.529,2.137 10.150,2.137 C5.736,2.137 2.144,5.733 2.144,10.152 C2.144,12.027 2.832,13.926 4.031,15.361 L2.393,16.732 C0.856,14.892 0.009,12.556 0.009,10.152 C0.009,4.554 4.559,-0.000 10.150,-0.000 C12.757,-0.000 15.227,0.981 17.089,2.725 C18.951,0.981 21.420,-0.000 24.027,-0.000 C29.619,-0.000 34.168,4.554 34.168,10.152 C34.168,12.556 33.322,14.892 31.784,16.732 L30.148,15.361 ZM16.518,32.060 L17.660,32.060 L25.880,22.304 L27.512,23.681 L18.652,34.197 L15.525,34.197 L6.666,23.681 L8.297,22.304 L16.518,32.060 Z" class="cls-1"/>
</svg>
