<svg xmlns="http://www.w3.org/2000/svg" xmlns:xlink="http://www.w3.org/1999/xlink" preserveAspectRatio="xMidYMid" width="34.46" height="32.062" viewBox="0 0 34.46 32.062">
  <defs>
    <style>
      .cls-1 {
        fill: #fff;
        fill-rule: evenodd;
      }
    </style>
  </defs>
  <path d="M23.547,20.310 C23.037,23.339 20.399,25.653 17.231,25.653 C14.062,25.653 11.425,23.339 10.915,20.310 L-0.001,20.310 L2.295,3.070 L4.411,3.353 L2.438,18.173 L12.961,18.173 L12.961,19.241 C12.961,21.598 14.876,23.516 17.231,23.516 C19.585,23.516 21.500,21.598 21.500,19.241 L21.500,18.173 L32.023,18.173 L30.050,3.353 L32.166,3.070 L34.462,20.310 L23.547,20.310 ZM10.826,4.280 L16.163,4.280 L16.163,6.417 L10.826,6.417 L10.826,4.280 ZM23.635,14.967 L10.826,14.967 L10.826,12.829 L23.635,12.829 L23.635,14.967 ZM10.826,8.555 L23.635,8.555 L23.635,10.692 L10.826,10.692 L10.826,8.555 ZM25.770,2.143 L8.691,2.143 L8.691,16.035 L6.556,16.035 L6.556,0.005 L27.905,0.005 L27.905,16.035 L25.770,16.035 L25.770,2.143 ZM2.286,29.928 L32.175,29.928 L32.175,22.447 L34.310,22.447 L34.310,32.065 L0.151,32.065 L0.151,22.447 L2.286,22.447 L2.286,29.928 Z" class="cls-1"/>
</svg>
