<svg xmlns="http://www.w3.org/2000/svg" xmlns:xlink="http://www.w3.org/1999/xlink" preserveAspectRatio="xMidYMid" width="34.282" height="33.875" viewBox="0 0 34.282 33.875">
  <defs>
    <style>
      .cls-1 {
        fill: #fff;
        fill-rule: evenodd;
      }
    </style>
  </defs>
  <path d="M34.250,16.776 C34.252,20.043 33.336,23.326 31.439,26.192 L29.658,25.011 C31.361,22.439 32.168,19.483 32.123,16.551 C32.122,16.495 32.117,16.440 32.116,16.385 C32.106,16.016 32.087,15.648 32.050,15.281 C32.045,15.229 32.035,15.178 32.030,15.126 C31.990,14.770 31.942,14.416 31.877,14.063 C31.824,13.776 31.756,13.494 31.686,13.212 C31.660,13.107 31.641,13.001 31.614,12.897 C30.153,7.537 25.742,3.253 20.066,2.100 L20.491,0.005 C23.896,0.697 26.897,2.384 29.226,4.711 L29.266,4.671 C31.439,6.845 32.914,9.500 33.669,12.324 C33.733,12.558 33.778,12.798 33.832,13.035 C33.879,13.244 33.934,13.450 33.973,13.661 C34.056,14.106 34.119,14.558 34.166,15.013 C34.168,15.027 34.171,15.041 34.172,15.056 C34.217,15.496 34.240,15.941 34.251,16.389 C34.252,16.429 34.255,16.469 34.256,16.510 C34.258,16.599 34.268,16.686 34.268,16.776 L34.250,16.776 ZM23.939,24.863 L16.066,17.213 L16.066,6.075 L18.201,6.075 L18.201,16.309 L25.426,23.329 L23.939,24.863 ZM2.132,16.761 C2.132,20.915 3.834,24.676 6.573,27.390 L6.623,27.340 C11.630,32.351 19.539,33.153 25.430,29.245 L26.610,31.027 C23.751,32.923 20.475,33.850 17.216,33.850 C17.169,33.850 17.123,33.843 17.076,33.843 L17.076,33.860 C7.659,33.860 -0.003,26.189 -0.003,16.761 C-0.003,8.661 5.744,1.615 13.662,0.005 L14.086,2.100 C7.159,3.508 2.132,9.673 2.132,16.761 Z" class="cls-1"/>
</svg>
